<mxfile host="app.diagrams.net" modified="2020-07-31T12:07:08.922Z" agent="5.0 (Windows NT 10.0; Win64; x64) AppleWebKit/537.36 (KHTML, like Gecko) Chrome/84.0.4147.89 Safari/537.36" etag="xA4GLwAaNjCZ62t9EjN3" version="13.5.7" type="github">
  <diagram id="dzg9JmnHSbNuV_5utXuX" name="Page-1">
    <mxGraphModel dx="1673" dy="908" grid="1" gridSize="10" guides="1" tooltips="1" connect="1" arrows="1" fold="1" page="1" pageScale="1" pageWidth="827" pageHeight="1169" math="0" shadow="0">
      <root>
        <mxCell id="0" />
        <mxCell id="1" parent="0" />
        <mxCell id="vJIeeCNKUQOT3NdO7NUC-5" value="GUS1" style="html=1;shadow=0;dashed=0;shape=mxgraph.bootstrap.rrect;rSize=5;strokeColor=#82b366;strokeWidth=1;whiteSpace=wrap;align=center;verticalAlign=middle;spacingLeft=0;fontStyle=1;fontSize=16;spacing=5;fillColor=#d5e8d4;labelBackgroundColor=none;labelBorderColor=none;" vertex="1" parent="1">
          <mxGeometry x="150" y="160" width="90" height="40" as="geometry" />
        </mxCell>
        <mxCell id="vJIeeCNKUQOT3NdO7NUC-6" value="GUD1" style="html=1;shadow=0;dashed=0;shape=mxgraph.bootstrap.rrect;rSize=5;strokeColor=#82b366;strokeWidth=1;whiteSpace=wrap;align=center;verticalAlign=middle;spacingLeft=0;fontStyle=1;fontSize=16;spacing=5;fillColor=#d5e8d4;labelBackgroundColor=none;labelBorderColor=none;" vertex="1" parent="1">
          <mxGeometry x="520" y="160" width="90" height="40" as="geometry" />
        </mxCell>
        <mxCell id="vJIeeCNKUQOT3NdO7NUC-7" value="GUN1" style="html=1;shadow=0;dashed=0;shape=mxgraph.bootstrap.rrect;rSize=5;strokeColor=#82b366;strokeWidth=1;whiteSpace=wrap;align=center;verticalAlign=middle;spacingLeft=0;fontStyle=1;fontSize=16;spacing=5;fillColor=#d5e8d4;labelBackgroundColor=none;labelBorderColor=none;" vertex="1" parent="1">
          <mxGeometry x="930" y="160" width="90" height="40" as="geometry" />
        </mxCell>
        <mxCell id="vJIeeCNKUQOT3NdO7NUC-8" value="GUN2" style="html=1;shadow=0;dashed=0;shape=mxgraph.bootstrap.rrect;rSize=5;strokeColor=#82b366;strokeWidth=1;whiteSpace=wrap;align=center;verticalAlign=middle;spacingLeft=0;fontStyle=1;fontSize=16;spacing=5;fillColor=#d5e8d4;labelBackgroundColor=none;labelBorderColor=none;" vertex="1" parent="1">
          <mxGeometry x="930" y="25" width="90" height="40" as="geometry" />
        </mxCell>
        <mxCell id="vJIeeCNKUQOT3NdO7NUC-9" value="GUD2" style="html=1;shadow=0;dashed=0;shape=mxgraph.bootstrap.rrect;rSize=5;strokeColor=#82b366;strokeWidth=1;whiteSpace=wrap;align=center;verticalAlign=middle;spacingLeft=0;fontStyle=1;fontSize=16;spacing=5;fillColor=#d5e8d4;labelBackgroundColor=none;labelBorderColor=none;" vertex="1" parent="1">
          <mxGeometry x="520" y="25" width="90" height="40" as="geometry" />
        </mxCell>
        <mxCell id="vJIeeCNKUQOT3NdO7NUC-10" value="GUS2" style="html=1;shadow=0;dashed=0;shape=mxgraph.bootstrap.rrect;rSize=5;strokeColor=#82b366;strokeWidth=1;whiteSpace=wrap;align=center;verticalAlign=middle;spacingLeft=0;fontStyle=1;fontSize=16;spacing=5;fillColor=#d5e8d4;labelBackgroundColor=none;labelBorderColor=none;" vertex="1" parent="1">
          <mxGeometry x="150" y="25" width="90" height="40" as="geometry" />
        </mxCell>
        <mxCell id="vJIeeCNKUQOT3NdO7NUC-12" value="379A" style="rounded=1;whiteSpace=wrap;html=1;labelBackgroundColor=none;strokeColor=#666666;fillColor=#f5f5f5;fontStyle=1;fontColor=#333333;" vertex="1" parent="1">
          <mxGeometry y="133" width="50" height="20" as="geometry" />
        </mxCell>
        <mxCell id="vJIeeCNKUQOT3NdO7NUC-13" value="379B" style="rounded=1;whiteSpace=wrap;html=1;labelBackgroundColor=none;strokeColor=#666666;fillColor=#f5f5f5;fontStyle=1;fontColor=#333333;" vertex="1" parent="1">
          <mxGeometry x="50" y="133" width="50" height="20" as="geometry" />
        </mxCell>
        <mxCell id="vJIeeCNKUQOT3NdO7NUC-14" value="405A" style="rounded=1;whiteSpace=wrap;html=1;labelBackgroundColor=none;strokeColor=#666666;fillColor=#f5f5f5;fontStyle=1;fontColor=#333333;" vertex="1" parent="1">
          <mxGeometry x="100" y="133" width="50" height="20" as="geometry" />
        </mxCell>
        <mxCell id="vJIeeCNKUQOT3NdO7NUC-15" value="405B" style="rounded=1;whiteSpace=wrap;html=1;labelBackgroundColor=none;strokeColor=#666666;fillColor=#f5f5f5;fontStyle=1;fontColor=#333333;" vertex="1" parent="1">
          <mxGeometry x="150" y="133" width="50" height="20" as="geometry" />
        </mxCell>
        <mxCell id="vJIeeCNKUQOT3NdO7NUC-16" value="429A" style="rounded=1;whiteSpace=wrap;html=1;labelBackgroundColor=none;strokeColor=#666666;fillColor=#f5f5f5;fontStyle=1;fontColor=#333333;" vertex="1" parent="1">
          <mxGeometry x="200" y="133" width="50" height="20" as="geometry" />
        </mxCell>
        <mxCell id="vJIeeCNKUQOT3NdO7NUC-17" value="429B" style="rounded=1;whiteSpace=wrap;html=1;labelBackgroundColor=none;strokeColor=#666666;fillColor=#f5f5f5;fontStyle=1;fontColor=#333333;" vertex="1" parent="1">
          <mxGeometry x="250" y="133" width="50" height="20" as="geometry" />
        </mxCell>
        <mxCell id="vJIeeCNKUQOT3NdO7NUC-18" value="459A" style="rounded=1;whiteSpace=wrap;html=1;labelBackgroundColor=none;strokeColor=#666666;fillColor=#f5f5f5;fontStyle=1;fontColor=#333333;" vertex="1" parent="1">
          <mxGeometry x="300" y="133" width="50" height="20" as="geometry" />
        </mxCell>
        <mxCell id="vJIeeCNKUQOT3NdO7NUC-19" value="459B" style="rounded=1;whiteSpace=wrap;html=1;labelBackgroundColor=none;strokeColor=#666666;fillColor=#f5f5f5;fontStyle=1;fontColor=#333333;" vertex="1" parent="1">
          <mxGeometry x="350" y="133" width="50" height="20" as="geometry" />
        </mxCell>
        <mxCell id="vJIeeCNKUQOT3NdO7NUC-20" value="459C" style="rounded=1;whiteSpace=wrap;html=1;labelBackgroundColor=none;strokeColor=#666666;fillColor=#f5f5f5;fontStyle=1;fontColor=#333333;" vertex="1" parent="1">
          <mxGeometry x="400" y="133" width="50" height="20" as="geometry" />
        </mxCell>
        <mxCell id="vJIeeCNKUQOT3NdO7NUC-22" value="489A" style="rounded=1;whiteSpace=wrap;html=1;labelBackgroundColor=none;strokeColor=#666666;fillColor=#f5f5f5;fontStyle=1;fontColor=#333333;" vertex="1" parent="1">
          <mxGeometry x="450" y="133" width="50" height="20" as="geometry" />
        </mxCell>
        <mxCell id="vJIeeCNKUQOT3NdO7NUC-23" value="489B" style="rounded=1;whiteSpace=wrap;html=1;labelBackgroundColor=none;strokeColor=#666666;fillColor=#f5f5f5;fontStyle=1;fontColor=#333333;" vertex="1" parent="1">
          <mxGeometry x="500" y="133" width="50" height="20" as="geometry" />
        </mxCell>
        <mxCell id="vJIeeCNKUQOT3NdO7NUC-24" value="517A" style="rounded=1;whiteSpace=wrap;html=1;labelBackgroundColor=none;strokeColor=#666666;fillColor=#f5f5f5;fontStyle=1;fontColor=#333333;" vertex="1" parent="1">
          <mxGeometry x="550" y="133" width="50" height="20" as="geometry" />
        </mxCell>
        <mxCell id="vJIeeCNKUQOT3NdO7NUC-25" value="517B" style="rounded=1;whiteSpace=wrap;html=1;labelBackgroundColor=none;strokeColor=#666666;fillColor=#f5f5f5;fontStyle=1;fontColor=#333333;" vertex="1" parent="1">
          <mxGeometry x="600" y="133" width="50" height="20" as="geometry" />
        </mxCell>
        <mxCell id="vJIeeCNKUQOT3NdO7NUC-26" value="545A" style="rounded=1;whiteSpace=wrap;html=1;labelBackgroundColor=none;strokeColor=#666666;fillColor=#f5f5f5;fontStyle=1;fontColor=#333333;" vertex="1" parent="1">
          <mxGeometry x="650" y="133" width="50" height="20" as="geometry" />
        </mxCell>
        <mxCell id="vJIeeCNKUQOT3NdO7NUC-27" value="545B" style="rounded=1;whiteSpace=wrap;html=1;labelBackgroundColor=none;strokeColor=#666666;fillColor=#f5f5f5;fontStyle=1;fontColor=#333333;" vertex="1" parent="1">
          <mxGeometry x="700" y="133" width="50" height="20" as="geometry" />
        </mxCell>
        <mxCell id="vJIeeCNKUQOT3NdO7NUC-28" value="573A" style="rounded=1;whiteSpace=wrap;html=1;labelBackgroundColor=none;strokeColor=#666666;fillColor=#f5f5f5;fontStyle=1;fontColor=#333333;" vertex="1" parent="1">
          <mxGeometry x="750" y="133" width="50" height="20" as="geometry" />
        </mxCell>
        <mxCell id="vJIeeCNKUQOT3NdO7NUC-29" value="573B" style="rounded=1;whiteSpace=wrap;html=1;labelBackgroundColor=none;strokeColor=#666666;fillColor=#f5f5f5;fontStyle=1;fontColor=#333333;" vertex="1" parent="1">
          <mxGeometry x="800" y="133" width="50" height="20" as="geometry" />
        </mxCell>
        <mxCell id="vJIeeCNKUQOT3NdO7NUC-30" value="599A" style="rounded=1;whiteSpace=wrap;html=1;labelBackgroundColor=none;strokeColor=#666666;fillColor=#f5f5f5;fontStyle=1;fontColor=#333333;" vertex="1" parent="1">
          <mxGeometry x="850" y="133" width="50" height="20" as="geometry" />
        </mxCell>
        <mxCell id="vJIeeCNKUQOT3NdO7NUC-31" value="599B" style="rounded=1;whiteSpace=wrap;html=1;labelBackgroundColor=none;strokeColor=#666666;fillColor=#f5f5f5;fontStyle=1;fontColor=#333333;" vertex="1" parent="1">
          <mxGeometry x="900" y="133" width="50" height="20" as="geometry" />
        </mxCell>
        <mxCell id="vJIeeCNKUQOT3NdO7NUC-32" value="599C" style="rounded=1;whiteSpace=wrap;html=1;labelBackgroundColor=none;strokeColor=#666666;fillColor=#f5f5f5;fontStyle=1;fontColor=#333333;" vertex="1" parent="1">
          <mxGeometry x="950" y="133" width="50" height="20" as="geometry" />
        </mxCell>
        <mxCell id="vJIeeCNKUQOT3NdO7NUC-33" value="625A" style="rounded=1;whiteSpace=wrap;html=1;labelBackgroundColor=none;strokeColor=#666666;fillColor=#f5f5f5;fontStyle=1;fontColor=#333333;" vertex="1" parent="1">
          <mxGeometry x="1000" y="133" width="50" height="20" as="geometry" />
        </mxCell>
        <mxCell id="vJIeeCNKUQOT3NdO7NUC-34" value="628B" style="rounded=1;whiteSpace=wrap;html=1;labelBackgroundColor=none;strokeColor=#666666;fillColor=#f5f5f5;fontStyle=1;fontColor=#333333;" vertex="1" parent="1">
          <mxGeometry x="1050" y="133" width="50" height="20" as="geometry" />
        </mxCell>
        <mxCell id="vJIeeCNKUQOT3NdO7NUC-35" value="625C" style="rounded=1;whiteSpace=wrap;html=1;labelBackgroundColor=none;strokeColor=#666666;fillColor=#f5f5f5;fontStyle=1;fontColor=#333333;" vertex="1" parent="1">
          <mxGeometry x="1100" y="133" width="50" height="20" as="geometry" />
        </mxCell>
        <mxCell id="vJIeeCNKUQOT3NdO7NUC-36" value="625D" style="rounded=1;whiteSpace=wrap;html=1;labelBackgroundColor=none;strokeColor=#666666;fillColor=#f5f5f5;fontStyle=1;fontColor=#333333;" vertex="1" parent="1">
          <mxGeometry x="1150" y="133" width="50" height="20" as="geometry" />
        </mxCell>
        <mxCell id="vJIeeCNKUQOT3NdO7NUC-40" value="406A" style="rounded=1;whiteSpace=wrap;html=1;labelBackgroundColor=none;strokeColor=#666666;fillColor=#f5f5f5;fontStyle=1;fontColor=#333333;" vertex="1" parent="1">
          <mxGeometry y="73" width="50" height="20" as="geometry" />
        </mxCell>
        <mxCell id="vJIeeCNKUQOT3NdO7NUC-41" value="406B" style="rounded=1;whiteSpace=wrap;html=1;labelBackgroundColor=none;strokeColor=#666666;fillColor=#f5f5f5;fontStyle=1;fontColor=#333333;" vertex="1" parent="1">
          <mxGeometry x="50" y="73" width="50" height="20" as="geometry" />
        </mxCell>
        <mxCell id="vJIeeCNKUQOT3NdO7NUC-42" value="430A" style="rounded=1;whiteSpace=wrap;html=1;labelBackgroundColor=none;strokeColor=#666666;fillColor=#f5f5f5;fontStyle=1;fontColor=#333333;" vertex="1" parent="1">
          <mxGeometry x="100" y="73" width="50" height="20" as="geometry" />
        </mxCell>
        <mxCell id="vJIeeCNKUQOT3NdO7NUC-43" value="430B" style="rounded=1;whiteSpace=wrap;html=1;labelBackgroundColor=none;strokeColor=#666666;fillColor=#f5f5f5;fontStyle=1;fontColor=#333333;" vertex="1" parent="1">
          <mxGeometry x="150" y="73" width="50" height="20" as="geometry" />
        </mxCell>
        <mxCell id="vJIeeCNKUQOT3NdO7NUC-44" value="460A" style="rounded=1;whiteSpace=wrap;html=1;labelBackgroundColor=none;strokeColor=#666666;fillColor=#f5f5f5;fontStyle=1;fontColor=#333333;" vertex="1" parent="1">
          <mxGeometry x="200" y="73" width="50" height="20" as="geometry" />
        </mxCell>
        <mxCell id="vJIeeCNKUQOT3NdO7NUC-45" value="460B" style="rounded=1;whiteSpace=wrap;html=1;labelBackgroundColor=none;strokeColor=#666666;fillColor=#f5f5f5;fontStyle=1;fontColor=#333333;" vertex="1" parent="1">
          <mxGeometry x="250" y="73" width="50" height="20" as="geometry" />
        </mxCell>
        <mxCell id="vJIeeCNKUQOT3NdO7NUC-46" value="490A" style="rounded=1;whiteSpace=wrap;html=1;labelBackgroundColor=none;strokeColor=#666666;fillColor=#f5f5f5;fontStyle=1;fontColor=#333333;" vertex="1" parent="1">
          <mxGeometry x="300" y="73" width="50" height="20" as="geometry" />
        </mxCell>
        <mxCell id="vJIeeCNKUQOT3NdO7NUC-47" value="490B" style="rounded=1;whiteSpace=wrap;html=1;labelBackgroundColor=none;strokeColor=#666666;fillColor=#f5f5f5;fontStyle=1;fontColor=#333333;" vertex="1" parent="1">
          <mxGeometry x="350" y="73" width="50" height="20" as="geometry" />
        </mxCell>
        <mxCell id="vJIeeCNKUQOT3NdO7NUC-48" value="490C" style="rounded=1;whiteSpace=wrap;html=1;labelBackgroundColor=none;strokeColor=#666666;fillColor=#f5f5f5;fontStyle=1;fontColor=#333333;" vertex="1" parent="1">
          <mxGeometry x="400" y="73" width="50" height="20" as="geometry" />
        </mxCell>
        <mxCell id="vJIeeCNKUQOT3NdO7NUC-49" value="518A" style="rounded=1;whiteSpace=wrap;html=1;labelBackgroundColor=none;strokeColor=#666666;fillColor=#f5f5f5;fontStyle=1;fontColor=#333333;" vertex="1" parent="1">
          <mxGeometry x="450" y="73" width="50" height="20" as="geometry" />
        </mxCell>
        <mxCell id="vJIeeCNKUQOT3NdO7NUC-50" value="518B" style="rounded=1;whiteSpace=wrap;html=1;labelBackgroundColor=none;strokeColor=#666666;fillColor=#f5f5f5;fontStyle=1;fontColor=#333333;" vertex="1" parent="1">
          <mxGeometry x="500" y="73" width="50" height="20" as="geometry" />
        </mxCell>
        <mxCell id="vJIeeCNKUQOT3NdO7NUC-51" value="546A" style="rounded=1;whiteSpace=wrap;html=1;labelBackgroundColor=none;strokeColor=#666666;fillColor=#f5f5f5;fontStyle=1;fontColor=#333333;" vertex="1" parent="1">
          <mxGeometry x="550" y="73" width="50" height="20" as="geometry" />
        </mxCell>
        <mxCell id="vJIeeCNKUQOT3NdO7NUC-52" value="546B" style="rounded=1;whiteSpace=wrap;html=1;labelBackgroundColor=none;strokeColor=#666666;fillColor=#f5f5f5;fontStyle=1;fontColor=#333333;" vertex="1" parent="1">
          <mxGeometry x="600" y="73" width="50" height="20" as="geometry" />
        </mxCell>
        <mxCell id="vJIeeCNKUQOT3NdO7NUC-53" value="574A" style="rounded=1;whiteSpace=wrap;html=1;labelBackgroundColor=none;strokeColor=#666666;fillColor=#f5f5f5;fontStyle=1;fontColor=#333333;" vertex="1" parent="1">
          <mxGeometry x="650" y="73" width="50" height="20" as="geometry" />
        </mxCell>
        <mxCell id="vJIeeCNKUQOT3NdO7NUC-54" value="574B" style="rounded=1;whiteSpace=wrap;html=1;labelBackgroundColor=none;strokeColor=#666666;fillColor=#f5f5f5;fontStyle=1;fontColor=#333333;" vertex="1" parent="1">
          <mxGeometry x="700" y="73" width="50" height="20" as="geometry" />
        </mxCell>
        <mxCell id="vJIeeCNKUQOT3NdO7NUC-55" value="600A" style="rounded=1;whiteSpace=wrap;html=1;labelBackgroundColor=none;strokeColor=#666666;fillColor=#f5f5f5;fontStyle=1;fontColor=#333333;" vertex="1" parent="1">
          <mxGeometry x="750" y="73" width="50" height="20" as="geometry" />
        </mxCell>
        <mxCell id="vJIeeCNKUQOT3NdO7NUC-56" value="600B" style="rounded=1;whiteSpace=wrap;html=1;labelBackgroundColor=none;strokeColor=#666666;fillColor=#f5f5f5;fontStyle=1;fontColor=#333333;" vertex="1" parent="1">
          <mxGeometry x="800" y="73" width="50" height="20" as="geometry" />
        </mxCell>
        <mxCell id="vJIeeCNKUQOT3NdO7NUC-57" value="626A" style="rounded=1;whiteSpace=wrap;html=1;labelBackgroundColor=none;strokeColor=#666666;fillColor=#f5f5f5;fontStyle=1;fontColor=#333333;" vertex="1" parent="1">
          <mxGeometry x="850" y="73" width="50" height="20" as="geometry" />
        </mxCell>
        <mxCell id="vJIeeCNKUQOT3NdO7NUC-58" value="626B" style="rounded=1;whiteSpace=wrap;html=1;labelBackgroundColor=none;strokeColor=#666666;fillColor=#f5f5f5;fontStyle=1;fontColor=#333333;" vertex="1" parent="1">
          <mxGeometry x="900" y="73" width="50" height="20" as="geometry" />
        </mxCell>
        <mxCell id="vJIeeCNKUQOT3NdO7NUC-59" value="626C" style="rounded=1;whiteSpace=wrap;html=1;labelBackgroundColor=none;strokeColor=#666666;fillColor=#f5f5f5;fontStyle=1;fontColor=#333333;" vertex="1" parent="1">
          <mxGeometry x="950" y="73" width="50" height="20" as="geometry" />
        </mxCell>
        <mxCell id="vJIeeCNKUQOT3NdO7NUC-60" value="658A" style="rounded=1;whiteSpace=wrap;html=1;labelBackgroundColor=none;strokeColor=#666666;fillColor=#f5f5f5;fontStyle=1;fontColor=#333333;" vertex="1" parent="1">
          <mxGeometry x="1000" y="73" width="50" height="20" as="geometry" />
        </mxCell>
        <mxCell id="vJIeeCNKUQOT3NdO7NUC-61" value="658B" style="rounded=1;whiteSpace=wrap;html=1;labelBackgroundColor=none;strokeColor=#666666;fillColor=#f5f5f5;fontStyle=1;fontColor=#333333;" vertex="1" parent="1">
          <mxGeometry x="1050" y="73" width="50" height="20" as="geometry" />
        </mxCell>
        <mxCell id="vJIeeCNKUQOT3NdO7NUC-62" value="658C" style="rounded=1;whiteSpace=wrap;html=1;labelBackgroundColor=none;strokeColor=#666666;fillColor=#f5f5f5;fontStyle=1;fontColor=#333333;" vertex="1" parent="1">
          <mxGeometry x="1100" y="73" width="50" height="20" as="geometry" />
        </mxCell>
        <mxCell id="vJIeeCNKUQOT3NdO7NUC-63" value="658D" style="rounded=1;whiteSpace=wrap;html=1;labelBackgroundColor=none;strokeColor=#666666;fillColor=#f5f5f5;fontStyle=1;fontColor=#333333;" vertex="1" parent="1">
          <mxGeometry x="1150" y="73" width="50" height="20" as="geometry" />
        </mxCell>
        <mxCell id="vJIeeCNKUQOT3NdO7NUC-68" value="&lt;b&gt;&lt;font color=&quot;#ffffff&quot; style=&quot;background-color: rgb(0 , 0 , 0)&quot;&gt;CHAMARTÍN&lt;/font&gt;&lt;/b&gt;" style="text;html=1;strokeColor=none;fillColor=none;align=center;verticalAlign=middle;whiteSpace=wrap;rounded=0;labelBackgroundColor=none;" vertex="1" parent="1">
          <mxGeometry x="20" y="103" width="40" height="20" as="geometry" />
        </mxCell>
        <mxCell id="vJIeeCNKUQOT3NdO7NUC-69" value="&lt;b&gt;&lt;font color=&quot;#ffffff&quot; style=&quot;background-color: rgb(0 , 0 , 0)&quot;&gt;SEGOVIA&lt;/font&gt;&lt;/b&gt;" style="text;html=1;strokeColor=none;fillColor=none;align=center;verticalAlign=middle;whiteSpace=wrap;rounded=0;labelBackgroundColor=none;" vertex="1" parent="1">
          <mxGeometry x="1153" y="103" width="40" height="20" as="geometry" />
        </mxCell>
        <mxCell id="vJIeeCNKUQOT3NdO7NUC-70" value="&lt;b&gt;&lt;font color=&quot;#ffffff&quot; style=&quot;background-color: rgb(0 , 0 , 0)&quot;&gt;VÍA 1&lt;/font&gt;&lt;/b&gt;" style="text;html=1;strokeColor=none;fillColor=none;align=center;verticalAlign=middle;whiteSpace=wrap;rounded=0;labelBackgroundColor=none;" vertex="1" parent="1">
          <mxGeometry y="163" width="40" height="20" as="geometry" />
        </mxCell>
        <mxCell id="vJIeeCNKUQOT3NdO7NUC-71" value="&lt;b&gt;&lt;font color=&quot;#ffffff&quot; style=&quot;background-color: rgb(0 , 0 , 0)&quot;&gt;VÍA 2&lt;/font&gt;&lt;/b&gt;" style="text;html=1;strokeColor=none;fillColor=none;align=center;verticalAlign=middle;whiteSpace=wrap;rounded=0;labelBackgroundColor=none;" vertex="1" parent="1">
          <mxGeometry y="43" width="40" height="20" as="geometry" />
        </mxCell>
        <mxCell id="vJIeeCNKUQOT3NdO7NUC-72" value="&lt;b&gt;&lt;font color=&quot;#ffffff&quot; style=&quot;background-color: rgb(0 , 0 , 0)&quot;&gt;VÍA 2&lt;/font&gt;&lt;/b&gt;" style="text;html=1;strokeColor=none;fillColor=none;align=center;verticalAlign=middle;whiteSpace=wrap;rounded=0;labelBackgroundColor=none;" vertex="1" parent="1">
          <mxGeometry x="1160" y="43" width="40" height="20" as="geometry" />
        </mxCell>
        <mxCell id="vJIeeCNKUQOT3NdO7NUC-73" value="&lt;b&gt;&lt;font color=&quot;#ffffff&quot; style=&quot;background-color: rgb(0 , 0 , 0)&quot;&gt;VÍA 1&lt;/font&gt;&lt;/b&gt;" style="text;html=1;strokeColor=none;fillColor=none;align=center;verticalAlign=middle;whiteSpace=wrap;rounded=0;labelBackgroundColor=none;" vertex="1" parent="1">
          <mxGeometry x="1160" y="163" width="40" height="20" as="geometry" />
        </mxCell>
      </root>
    </mxGraphModel>
  </diagram>
</mxfile>
